<svg width="629" height="677" viewBox="0 0 629 677" fill="none" xmlns="http://www.w3.org/2000/svg">
<g clip-path="url(#clip0_55_57)" filter="url(#filter0_d_55_57)">
<rect width="621" height="669" transform="translate(4)" fill="white"/>
<path d="M309.833 436.267C320.878 436.267 328.967 433.156 334.1 426.933C339.233 420.711 341.8 413.322 341.8 404.767V388.433C341.8 378.322 338.533 371.167 332 366.967C325.467 362.611 318.078 360.433 309.833 360.433H291.633V436.267H309.833ZM338.533 278.533C338.533 269.2 335.967 262.744 330.833 259.167C325.7 255.433 318.311 253.567 308.667 253.567H291.633V321H310.533C319.556 321 326.478 317.5 331.3 310.5C336.122 303.344 338.533 294.633 338.533 284.367V278.533ZM325.7 484.1C313.567 484.1 297.856 483.789 278.567 483.167C259.278 482.544 245.433 482.156 237.033 482H214.633V208.533H255C264.8 208.533 276 208.222 288.6 207.6C301.2 206.822 310.3 206.433 315.9 206.433C334.1 206.433 349.422 207.911 361.867 210.867C374.467 213.822 384.344 218.256 391.5 224.167C398.656 230.078 403.711 236.922 406.667 244.7C409.778 252.478 411.333 261.733 411.333 272.467C411.333 288.956 407.522 303.111 399.9 314.933C392.278 326.756 381.233 334.144 366.767 337.1C403.478 340.367 421.833 361.911 421.833 401.733C421.833 413.711 420.044 424.6 416.467 434.4C412.889 444.044 407.367 452.678 399.9 460.3C392.589 467.767 382.633 473.6 370.033 477.8C357.433 482 342.656 484.1 325.7 484.1Z" fill="#FF7EB3"/>
<path d="M374.753 231.071C375.554 217.185 374.4 203.199 371.369 190.039C368.338 176.879 363.498 164.843 357.169 154.728C350.84 144.613 343.167 136.649 334.656 131.361C326.145 126.074 316.991 123.584 307.798 124.057C298.605 124.529 289.583 127.952 281.328 134.101C273.073 140.25 265.773 148.983 259.911 159.725C254.048 170.466 249.757 182.971 247.321 196.412C244.885 209.853 244.359 223.925 245.778 237.697L258.623 234.657C257.487 223.64 257.908 212.382 259.857 201.63C261.806 190.877 265.239 180.873 269.928 172.28C274.618 163.687 280.458 156.7 287.062 151.781C293.666 146.862 300.884 144.123 308.238 143.745C315.593 143.367 322.916 145.359 329.725 149.589C336.533 153.819 342.672 160.191 347.735 168.283C352.798 176.375 356.67 186.003 359.095 196.531C361.52 207.06 362.443 218.248 361.803 229.357L374.753 231.071Z" fill="#FF7EB3"/>
<ellipse cx="323" cy="395" rx="52" ry="60" fill="#FF7EB3"/>
<ellipse cx="313" cy="285.5" rx="39" ry="42.5" fill="#FF7EB3"/>
<path d="M242.72 339.7H243.38C247.78 332 253.94 325.07 261.86 318.91C270 312.53 281 309.34 294.86 309.34C302.12 309.34 309.05 310.44 315.65 312.64C322.47 314.62 328.52 318.25 333.8 323.53C339.3 328.81 343.59 336.4 346.67 346.3C349.75 355.98 351.29 368.52 351.29 383.92C351.29 413.84 344.25 436.5 330.17 451.9C316.09 467.3 296.95 475 272.75 475C264.83 475 257.13 474.34 249.65 473.02C242.39 471.48 235.9 469.61 230.18 467.41C224.9 465.43 219.95 462.57 215.33 458.83C210.71 454.87 208.4 448.16 208.4 438.7V239.71C208.4 234.65 209.28 230.8 211.04 228.16C212.8 225.52 216.32 224.2 221.6 224.2C228.86 224.2 234.14 226.29 237.44 230.47C240.96 234.43 242.72 241.36 242.72 251.26V339.7ZM242.39 444.31C242.39 448.71 244.92 452.78 249.98 456.52C255.26 460.04 262.85 461.8 272.75 461.8C281.33 461.8 288.81 459.38 295.19 454.54C301.57 449.7 306.52 441.78 310.04 430.78C313.78 419.78 315.65 405.04 315.65 386.56C315.65 370.94 314.11 359.28 311.03 351.58C307.95 343.66 303.88 338.38 298.82 335.74C293.76 332.88 288.04 331.45 281.66 331.45C276.16 331.45 270.33 333.21 264.17 336.73C258.01 340.25 252.84 344.87 248.66 350.59C244.48 356.31 242.39 362.36 242.39 368.74V444.31Z" fill="white"/>
</g>
<defs>
<filter id="filter0_d_55_57" x="0" y="0" width="629" height="677" filterUnits="userSpaceOnUse" color-interpolation-filters="sRGB">
<feFlood flood-opacity="0" result="BackgroundImageFix"/>
<feColorMatrix in="SourceAlpha" type="matrix" values="0 0 0 0 0 0 0 0 0 0 0 0 0 0 0 0 0 0 127 0" result="hardAlpha"/>
<feOffset dy="4"/>
<feGaussianBlur stdDeviation="2"/>
<feComposite in2="hardAlpha" operator="out"/>
<feColorMatrix type="matrix" values="0 0 0 0 0 0 0 0 0 0 0 0 0 0 0 0 0 0 0.25 0"/>
<feBlend mode="normal" in2="BackgroundImageFix" result="effect1_dropShadow_55_57"/>
<feBlend mode="normal" in="SourceGraphic" in2="effect1_dropShadow_55_57" result="shape"/>
</filter>
<clipPath id="clip0_55_57">
<rect width="621" height="669" fill="white" transform="translate(4)"/>
</clipPath>
</defs>
</svg>
